# xmcd CD database file
#
# Track frame offsets:
#	150
#	21365
#	39457
#	63271
#	76031
#	102473
#	127930
#	163506
#	185470
#	210090
#
# Disc length: 3129 seconds
#
# Revision: 0
# Processed by: cddbd v1.5.2PL0 Copyright (c) Steve Scherf et al.
# Submitted via: CDex 1.51
#
DISCID=730c370a
DTITLE=Kristin Korb - In The Meantime
DYEAR=2009
DGENRE=Jazz
TTITLE0=Lucky to Be Me
TTITLE1=I Got It Bad
TTITLE2=You Fascinate Me So
TTITLE3=Lover Come Back to Me
TTITLE4=Ain't Misbehaving
TTITLE5=Better Than Anything
TTITLE6=Tears of the Su n
TTITLE7=Love Walked In
TTITLE8=If I Am Ever Yours
TTITLE9=Tomorrow's Another Day
EXTD=YEAR: 2009
EXTT0=
EXTT1=
EXTT2=
EXTT3=
EXTT4=
EXTT5=
EXTT6=
EXTT7=
EXTT8=
EXTT9=
PLAYORDER=
